<svg id="eShd49fTgqk1" xmlns="http://www.w3.org/2000/svg" xmlns:xlink="http://www.w3.org/1999/xlink" viewBox="0 0 459.01 431.86" shape-rendering="geometricPrecision" text-rendering="geometricPrecision"><g><path d="M391.79,206.59c-89.63-51.53-234.94-51.53-324.57,0s-89.63,135.09,0,186.62s234.94,51.53,324.57,0c89.62-51.53,89.62-135.09,0-186.62Z" fill="#f5f5f5"/></g><g><ellipse rx="63.45" ry="36.64" transform="translate(120.8 270.1)" fill="#e0e0e0"/><g><path d="M228.83,366.42l-5.9-3.41l4.29-2.48c2.23-1.29,2.57-3.12,2.57-4.11c0-.98-.34-2.81-2.57-4.1l-10.69-6.17c-1.19-.68-2.59-1.03-4.19-1.03-1.59,0-3,.35-4.18,1.03l-7.21,4.16-37.26-21.51c-1.18-.68-2.59-1.03-4.18-1.03s-3,.35-4.19,1.03l-15.23,8.79c-1.31.76-2.18,1.51-2.73,2.38-.66,1.05-.86,2.35-.59,3.92l7.88,39.44c.46,1.98,1.94,3.71,4.41,5.13l10.69,6.17c1.19.68,2.59,1.03,4.17,1.03v0c1.59,0,3-.35,4.18-1.03l30.3-17.5l8.82,5.09c1.19.68,2.59,1.03,4.19,1.03s2.99-.35,4.18-1.03l13.2-7.62c2.24-1.29,2.58-3.12,2.58-4.11c0-.98-.34-2.81-2.57-4.1Zm-58.68,1.69l-1.77-8.88l8.58,4.95-6.81,3.93Z" fill="#e0e0e0"/><path d="M288.17,305.04c-2.67-1.7-5.62-3.48-8.78-5.3-3.13-1.81-6.28-3.55-9.4-5.19-3.99-2.06-8.39-3.76-13.07-5.05-4.72-1.3-9.7-1.99-14.81-2.05h-.69c-4.87,0-9.92.62-15.01,1.86-5.36,1.3-10.74,3.5-16,6.54-5.44,3.14-9.27,6.28-11.69,9.6-2.53,3.48-3.76,7-3.63,10.47.12,3.47,1.49,6.79,4.05,9.88c2.33,2.81,5.36,5.44,9.05,7.83c2.76,1.75,5.78,3.57,8.98,5.42s6.28,3.55,9.19,5.07c4,2.07,8.4,3.77,13.07,5.05c4.72,1.3,9.7,1.99,14.81,2.05h.69c4.88,0,9.93-.62,15.01-1.86c5.36-1.3,10.74-3.5,16-6.54c5.45-3.15,9.27-6.28,11.69-9.6c2.54-3.48,3.76-7,3.63-10.47-.12-3.46-1.49-6.78-4.05-9.88-2.33-2.82-5.37-5.44-9.05-7.82Zm-18.13,20.89c-.27.42-1.05,1.29-3.15,2.51-1.74,1.01-3.46,1.7-5.11,2.06-1.32.29-2.63.43-3.9.43-.35,0-.69-.01-1.04-.03-1.61-.1-3.2-.41-4.73-.93-1.63-.55-3.27-1.26-4.9-2.13-5.93-3.04-11.54-6.28-16.73-9.66-1.4-.87-2.53-1.76-3.37-2.63-.62-.64-1-1.26-1.12-1.77-.02-.1-.09-.4.34-1.06.27-.41,1.04-1.29,3.15-2.51c1.75-1.01,3.47-1.7,5.11-2.06c1.27-.28,2.52-.42,3.73-.42.38,0,.76.01,1.13.04c1.6.12,3.19.44,4.72.96c1.66.56,3.36,1.27,4.97,2.06c5.75,3.02,11.38,6.27,16.75,9.67c1.42.89,2.59,1.79,3.48,2.66.59.59.96,1.15,1.05,1.63.02.12.09.47-.38,1.18Z" fill="#e0e0e0"/><path d="M376.12,281.38l-5.9-3.41l4.29-2.48c2.23-1.29,2.57-3.12,2.57-4.1s-.33-2.81-2.57-4.1l-10.69-6.17c-1.18-.68-2.59-1.03-4.19-1.04-1.59,0-3,.35-4.18,1.03l-7.21,4.16-37.26-21.51c-1.18-.68-2.59-1.03-4.18-1.03s-2.99.35-4.19,1.03l-15.23,8.79c-1.31.76-2.18,1.51-2.73,2.38-.66,1.05-.86,2.35-.58,3.92l7.88,39.44c.46,1.98,1.94,3.71,4.41,5.13l10.69,6.17c1.19.69,2.59,1.03,4.18,1.03v0c1.59,0,3-.35,4.18-1.03l30.3-17.49l8.82,5.09c1.19.69,2.59,1.03,4.19,1.03s2.99-.35,4.18-1.03l13.2-7.62c2.24-1.28,2.58-3.12,2.58-4.12c0-.98-.34-2.8-2.57-4.09Zm-58.68,1.69l-1.77-8.88l8.58,4.95-6.81,3.93Z" fill="#e0e0e0"/></g></g><g transform="translate(1.064732 0)"><g><path id="eShd49fTgqk12" d="M416.92,43.21l-9.46-5.46c.05-.37.08-.75.08-1.16v-2.74c0-4.88-3.42-10.81-7.65-13.25-1.71-.99-3.28-1.24-4.56-.88-.69-6.93-5.5-14.78-11.35-18.15-6.32-3.65-11.44-.69-11.44,6.61v4.1c0,1.89.35,3.89.97,5.87l-7.86-4.54c-2.34-1.35-4.24-.26-4.24,2.45s1.9,6,4.24,7.35l51.28,29.61c2.34,1.35,4.24.26,4.24-2.45s-1.9-6-4.24-7.35Z" fill="#ebebeb"/><path id="eShd49fTgqk13" d="M359.54,53.35l-6.03-3.48c.03-.23.05-.48.05-.74v-1.75c0-3.11-2.18-6.89-4.87-8.44-1.09-.63-2.09-.79-2.9-.56-.44-4.42-3.51-9.41-7.23-11.56-4.03-2.32-7.29-.44-7.29,4.21v2.61c0,1.2.22,2.48.62,3.74l-5.01-2.89c-1.49-.86-2.7-.16-2.7,1.56s1.21,3.82,2.7,4.68l32.67,18.86c1.49.86,2.7.16,2.7-1.56s-1.21-3.82-2.7-4.68Z" transform="translate(1.270937 2.618951)" fill="#ebebeb"/></g></g><g><g><g id="eShd49fTgqk16" transform="translate(.000004 0.000002)"><path d="M355.37,258.2c-3.23-14.81-8.41-29.33-5.2-51.98c2.92-20.53,13.7-38.89,29.07-40.94c10.37-1.38,19.41,10.17,9.27,25.01-1.68,2.46-23.65,23.96-20.03,53.67l-2.05,19.73-11.07-5.49Z" fill="#f58103"/><g opacity="0.2"><path d="M355.37,258.2c-3.23-14.81-8.41-29.33-5.2-51.98c2.92-20.53,13.7-38.89,29.07-40.94c10.37-1.38,19.41,10.17,9.27,25.01-1.68,2.46-23.65,23.96-20.03,53.67l-2.05,19.73-11.07-5.49Z" fill-opacity="0.4"/></g><path d="M360.74,256.01c.27-.12.43-.41.38-.71-5.96-37.99,1.65-66.37,20-81.96.28-.24.32-.66.08-.94s-.66-.32-.94-.08c-18.58,15.79-26.49,44.72-20.46,83.19.06.37.4.61.76.56.06,0,.12-.03.18-.05Z" fill="#fff"/></g><g id="eShd49fTgqk21" transform="translate(.000004 0)"><path d="M372.69,269.51c-.08-5.76,3.1-18.31,10.64-29.27c9.5-13.82,24.32-18.34,25.83-25.58c1.82-8.7-7.29-13.66-19.09-9.44-14.18,5.07-30.94,25.5-25.13,59.94l7.75,4.35Z" fill="#72593e"/><path d="M368.81,263.43c.26-.1.44-.34.46-.63c1.6-30.57,19.75-46.58,29.13-50.77.36-.16.53-.59.36-.95-.16-.36-.57-.53-.95-.36-10.37,4.64-28.35,20.81-29.98,52.01-.02.4.29.74.68.76.11,0,.21-.01.3-.05Z" fill="#fff"/></g></g></g><g><g><g><g><g><path d="M226.2,358.79l-13.21,7.62c-.74.43-1.65.64-2.72.64s-1.98-.21-2.71-.64l-10.29-5.94-31.76,18.34c-.74.42-1.65.64-2.72.64s-1.98-.22-2.72-.64l-10.69-6.17c-1.75-1.01-2.76-2.09-3.03-3.26l-7.87-39.35c-.05-.26-.06-.49-.06-.7c0,.76-.01,10.58,0,11.06c0,.19.02.39.06.61l7.87,39.35c.27,1.17,1.27,2.26,3.03,3.26l10.69,6.17c.75.42,1.65.64,2.72.64s1.99-.22,2.72-.64l31.76-18.34l10.29,5.94c.74.43,1.64.64,2.71.64s1.99-.21,2.72-.64l13.21-7.62c.74-.43,1.11-.95,1.11-1.58v-10.97c0,.62-.37,1.15-1.11,1.58Z" fill="#f58103"/><path d="M225.7,354.09v-10.97c0,.62-.37,1.15-1.11,1.58l-8.67,5l9.36,5.4c.27-.3.42-.64.42-1.02Z" fill="#f58103"/><polygon points="165.56,352.55 172.13,356.36 181.64,350.88 163.08,340.16 165.55,352.55 165.56,352.55" fill="#f58103"/></g><g><polygon points="165.56,352.55 172.13,356.36 181.64,350.88 163.08,340.16 165.55,352.55 165.56,352.55" opacity="0.35"/><path d="M225.7,354.09v-10.97c0,.62-.37,1.15-1.11,1.58l-8.67,5l9.36,5.4c.27-.3.42-.64.42-1.02Z" opacity="0.2"/><path d="M226.2,358.79l-13.21,7.62c-.74.43-1.65.64-2.72.64v10.97c1.08,0,1.99-.21,2.72-.64l13.21-7.62c.74-.43,1.11-.95,1.11-1.58v-10.97c0,.62-.37,1.15-1.11,1.58Z" opacity="0.2"/><path d="M146.34,369.38l-7.87-39.35c-.05-.26-.06-.49-.06-.7c0,.76-.01,10.58,0,11.06c0,.19.02.39.06.61l7.87,39.35c.05.22.13.44.25.67v-10.97c-.12-.22-.2-.44-.25-.67Z" opacity="0.25"/><path d="M162.78,379.46c-1.08,0-1.98-.22-2.72-.64l-10.69-6.17c-1.41-.81-2.35-1.67-2.78-2.6v10.97c.43.92,1.37,1.79,2.78,2.6l10.69,6.17c.75.42,1.65.64,2.72.64.11,0,.2,0,.3-.02v-10.97c-.11.02-.2.02-.3.02Z" opacity="0.35"/><path d="M165.5,378.82c-.67.39-1.47.6-2.42.62v10.97c.95-.02,1.75-.23,2.42-.62l31.76-18.34v-10.97L165.5,378.82Z" opacity="0.2"/><path d="M207.55,366.42l-10.29-5.94v10.97l10.29,5.94c.74.43,1.64.64,2.71.64v-10.97c-1.08,0-1.98-.21-2.71-.64Z" opacity="0.35"/></g><path d="M213,366.42c-.74.43-1.65.64-2.72.64-1.08,0-1.98-.21-2.72-.64l-10.29-5.94-31.76,18.34c-.74.43-1.64.64-2.72.64s-1.98-.21-2.72-.64l-10.69-6.17c-1.75-1.01-2.76-2.1-3.03-3.26l-7.86-39.35c-.13-.78-.07-1.38.2-1.8.27-.43.84-.89,1.72-1.4l15.22-8.79c.74-.43,1.65-.64,2.72-.64c1.08,0,1.98.21,2.72.64l38.72,22.35l8.67-5.01c.74-.43,1.65-.64,2.72-.64c1.08,0,1.98.21,2.72.64l10.69,6.17c.74.43,1.11.95,1.11,1.57s-.37,1.15-1.11,1.57l-8.67,5.01l10.28,5.94c.74.43,1.11.95,1.11,1.57s-.37,1.15-1.11,1.57l-13.21,7.63Zm-31.36-15.54l-18.55-10.71l3.83,19.21l14.72-8.5Z" fill="#f58103"/></g><g><g><path d="M297.19,310.1c-.05,2.64-1.09,5.34-3.09,8.09-2.15,2.95-5.74,5.88-10.79,8.79-5.04,2.91-10.11,4.98-15.22,6.23-5.11,1.24-10.1,1.84-14.98,1.78-4.86-.06-9.56-.71-14.06-1.95s-8.67-2.85-12.51-4.84c-2.89-1.51-5.9-3.18-9.07-5-3.16-1.82-6.11-3.6-8.87-5.35-3.43-2.21-6.22-4.62-8.36-7.21-2.16-2.61-3.29-5.31-3.38-8.12.06,1.74-.07,9.05,0,10.97.09,2.82,1.22,5.52,3.38,8.12c2.14,2.6,4.93,5,8.36,7.21c2.76,1.75,5.72,3.53,8.87,5.35c3.17,1.82,6.18,3.5,9.07,5.02c3.83,1.98,8.01,3.59,12.51,4.83s9.2,1.89,14.06,1.95c4.88.06,9.87-.54,14.98-1.78c5.11-1.25,10.18-3.32,15.22-6.23c5.05-2.91,8.64-5.85,10.79-8.79c2.15-2.95,3.18-5.83,3.07-8.64-.06-1.61.05-7.93.01-10.42Z" fill="#f58103"/><path d="M255.8,334.93c-.9.03-1.8.07-2.69.06-4.86-.06-9.56-.71-14.06-1.95s-8.67-2.85-12.51-4.84c-2.89-1.51-5.9-3.18-9.07-5-3.16-1.82-6.11-3.6-8.87-5.35-3.43-2.21-6.22-4.62-8.36-7.21-2.16-2.61-3.29-5.31-3.38-8.12.06,1.74-.07,9.05,0,10.97.09,2.82,1.22,5.52,3.38,8.12c2.14,2.6,4.93,5,8.36,7.21c2.76,1.75,5.72,3.53,8.87,5.35c3.17,1.82,6.18,3.5,9.07,5.02c3.83,1.98,8.01,3.59,12.51,4.83s9.2,1.89,14.06,1.95c.89.01,1.79-.02,2.69-.06v-10.97Z" opacity="0.35"/><path d="M297.19,310.1c-.05,2.64-1.09,5.34-3.09,8.09-2.15,2.95-5.74,5.88-10.79,8.79-5.04,2.91-10.11,4.98-15.22,6.23-4.17,1.01-8.27,1.57-12.28,1.72v10.97c4.02-.15,8.11-.71,12.28-1.72c5.11-1.25,10.18-3.32,15.22-6.23c5.05-2.91,8.64-5.85,10.79-8.79c2.15-2.95,3.18-5.83,3.07-8.64-.06-1.61.05-7.93.01-10.42Z" opacity="0.2"/></g><g><path d="M223.83,304.28c.56.58,1.22,1.17,1.96,1.73.34-.22.68-.44,1.05-.67c2.02-1.16,4-1.95,5.95-2.38c1.95-.42,3.86-.57,5.7-.43c1.85.14,3.66.5,5.45,1.1c1.78.61,3.58,1.36,5.39,2.24c5.85,3.07,11.49,6.32,16.94,9.78.71.44,1.37.9,1.96,1.34c1.44-.93,2.48-1.85,3.08-2.77.74-1.12,1.01-2.23.81-3.32-.2-1.08-.82-2.14-1.86-3.17-1.05-1.03-2.37-2.05-3.99-3.05-5.45-3.46-11.09-6.72-16.94-9.78-1.81-.89-3.61-1.64-5.39-2.24-1.79-.6-3.6-.96-5.45-1.1s-3.75.01-5.7.43c-1.95.43-3.93,1.23-5.95,2.38-2.01,1.17-3.39,2.31-4.13,3.44-.74,1.12-.99,2.22-.76,3.28.25,1.08.87,2.13,1.87,3.18Z" fill="#f58103"/><path d="M223.83,304.28c.56.58,1.22,1.17,1.96,1.73.34-.22.68-.44,1.05-.67c2.02-1.16,4-1.95,5.95-2.38c1.95-.42,3.86-.57,5.7-.43c1.85.14,3.66.5,5.45,1.1c1.78.61,3.58,1.36,5.39,2.24c5.85,3.07,11.49,6.32,16.94,9.78.71.44,1.37.9,1.96,1.34c1.44-.93,2.48-1.85,3.08-2.77.74-1.12,1.01-2.23.81-3.32-.2-1.08-.82-2.14-1.86-3.17-1.05-1.03-2.37-2.05-3.99-3.05-5.45-3.46-11.09-6.72-16.94-9.78-1.81-.89-3.61-1.64-5.39-2.24-1.79-.6-3.6-.96-5.45-1.1s-3.75.01-5.7.43c-1.95.43-3.93,1.23-5.95,2.38-2.01,1.17-3.39,2.31-4.13,3.44-.74,1.12-.99,2.22-.76,3.28.25,1.08.87,2.13,1.87,3.18Z" opacity="0.35"/></g><path d="M210.72,285.07c5.04-2.91,10.12-4.99,15.23-6.23s10.1-1.83,14.97-1.78c4.87.06,9.56.71,14.06,1.95s8.67,2.85,12.5,4.83c3.02,1.59,6.12,3.3,9.28,5.12s6.05,3.57,8.67,5.24c3.43,2.21,6.22,4.62,8.37,7.22s3.28,5.31,3.38,8.12-.92,5.7-3.07,8.64c-2.15,2.95-5.75,5.88-10.79,8.79s-10.12,4.99-15.23,6.23-10.1,1.83-14.97,1.78c-4.87-.06-9.56-.71-14.06-1.95-4.51-1.24-8.67-2.85-12.51-4.83-2.89-1.51-5.91-3.18-9.07-5.01-3.16-1.82-6.12-3.61-8.88-5.36-3.43-2.21-6.22-4.62-8.37-7.22s-3.28-5.31-3.38-8.12.93-5.69,3.07-8.64c2.15-2.95,5.75-5.88,10.79-8.79Zm55.56,19.62c-5.45-3.45-11.09-6.71-16.94-9.78-1.81-.89-3.61-1.64-5.39-2.24s-3.6-.97-5.45-1.11-3.75.01-5.7.44-3.93,1.22-5.95,2.39c-2.01,1.16-3.39,2.31-4.13,3.43-.74,1.13-.99,2.22-.76,3.29.24,1.07.86,2.12,1.87,3.17s2.32,2.08,3.93,3.09c5.24,3.42,10.89,6.68,16.94,9.78c1.75.93,3.51,1.7,5.29,2.3s3.61.96,5.49,1.08s3.8-.04,5.75-.47s3.93-1.22,5.95-2.39c2.02-1.16,3.39-2.31,4.13-3.43s1.01-2.23.81-3.32-.82-2.14-1.86-3.17-2.37-2.05-3.98-3.06Z" fill="#f58103"/></g><g><g><path d="M373.48,273.76l-13.21,7.62c-.74.43-1.65.64-2.72.64s-1.98-.21-2.71-.64l-10.29-5.94-31.76,18.34c-.74.42-1.65.64-2.72.64s-1.98-.22-2.72-.64l-10.69-6.17c-1.75-1.01-2.76-2.09-3.03-3.26L285.76,245c-.05-.26-.06-.49-.06-.7c0,.76-.01,10.58,0,11.06c0,.19.02.39.06.61l7.87,39.35c.27,1.17,1.27,2.26,3.03,3.26l10.69,6.17c.75.42,1.65.64,2.72.64s1.99-.22,2.72-.64l31.76-18.34l10.29,5.94c.74.43,1.64.64,2.71.64s1.99-.21,2.72-.64l13.21-7.62c.74-.43,1.11-.95,1.11-1.58v-10.97c0,.62-.37,1.15-1.11,1.58Z" fill="#f58103"/><path d="M372.98,269.06v-10.97c0,.62-.37,1.15-1.11,1.58l-8.67,5l9.36,5.4c.27-.3.42-.64.42-1.02Z" fill="#f58103"/><polygon points="312.85,267.51 319.42,271.33 328.92,265.84 310.37,255.12 312.83,267.51 312.85,267.51" fill="#f58103"/></g><g><polygon points="312.85,267.51 319.42,271.33 328.92,265.84 310.37,255.12 312.83,267.51 312.85,267.51" transform="translate(0-.957889)" opacity="0.35"/><path d="M372.98,269.06v-10.97c0,.62-.37,1.15-1.11,1.58l-8.67,5l9.36,5.4c.27-.3.42-.64.42-1.02Z" opacity="0.2"/><path d="M373.48,273.76l-13.21,7.62c-.74.43-1.65.64-2.72.64v10.97c1.08,0,1.99-.21,2.72-.64l13.21-7.62c.74-.43,1.11-.95,1.11-1.58v-10.97c0,.62-.37,1.15-1.11,1.58Z" opacity="0.2"/><path d="M293.63,284.35L285.76,245c-.05-.26-.06-.49-.06-.7c0,.76-.01,10.58,0,11.06c0,.19.02.39.06.61l7.87,39.35c.05.22.13.44.25.67v-10.97c-.12-.22-.2-.44-.25-.67Z" opacity="0.25"/><path d="M310.06,294.43c-1.08,0-1.98-.22-2.72-.64l-10.69-6.17c-1.41-.81-2.35-1.67-2.78-2.6v10.97c.43.92,1.37,1.79,2.78,2.6l10.69,6.17c.75.42,1.65.64,2.72.64.11,0,.2,0,.3-.02v-10.97c-.11.02-.2.02-.3.02Z" opacity="0.35"/><path d="M312.79,293.78c-.67.39-1.47.6-2.42.62v10.97c.95-.02,1.75-.23,2.42-.62l31.76-18.34v-10.97l-31.76,18.34Z" opacity="0.2"/><path d="M354.84,281.38l-10.29-5.94v10.97l10.29,5.94c.74.43,1.64.64,2.71.64v-10.97c-1.08,0-1.98-.21-2.71-.64Z" opacity="0.35"/></g><path d="M360.28,281.38c-.74.43-1.65.64-2.72.64-1.08,0-1.98-.21-2.72-.64l-10.29-5.94-31.76,18.34c-.74.43-1.64.64-2.72.64s-1.98-.21-2.72-.64l-10.69-6.17c-1.75-1.01-2.76-2.1-3.03-3.26L285.77,245c-.13-.78-.07-1.38.2-1.8.27-.43.84-.89,1.72-1.4l15.22-8.79c.74-.43,1.65-.64,2.72-.64c1.08,0,1.98.21,2.72.64l38.72,22.35l8.67-5.01c.74-.43,1.65-.64,2.72-.64c1.08,0,1.98.21,2.72.64l10.69,6.17c.74.43,1.11.95,1.11,1.57s-.37,1.15-1.11,1.57l-8.67,5.01l10.28,5.94c.74.43,1.11.95,1.11,1.57s-.37,1.15-1.11,1.57l-13.21,7.63Zm-31.36-15.54l-18.55-10.71l3.83,19.21l14.72-8.5Z" fill="#f58103"/></g></g><g><path d="M291.92,366.62c.22-.13.5-.2.83-.2s.6.07.83.2l3.26,1.88c.23.13.34.29.34.48s-.11.35-.34.48l-14.57,8.41c-.23.13-.5.2-.83.19-.33,0-.6-.06-.83-.19l-19.85-11.46c-.22-.13-.34-.29-.34-.48s.11-.35.34-.48l14.32-8.27c.22-.13.5-.2.83-.2s.61.07.83.2l3.26,1.88c.22.13.34.29.34.48s-.11.35-.34.48l-9.47,5.46l3.32,1.92l8.79-5.07c.22-.13.5-.2.83-.2s.6.07.83.2l3.26,1.88c.23.13.34.29.34.48s-.11.35-.34.48l-8.79,5.07l3.44,1.99l9.71-5.61Z" fill="#72593e"/><path d="M296.78,351.04c.22-.13.5-.19.83-.19s.6.06.83.2l3.1,1.79c.22.13.34.29.34.48s-.11.35-.34.48l-2.8,1.61c-1.88,1.09-1.89,2.18,0,3.26l7.56,4.37c.23.13.34.29.34.48s-.11.35-.34.48l-3.87,2.24c-.23.13-.5.2-.83.2s-.6-.06-.83-.2l-14.32-8.27c-.23-.13-.34-.29-.34-.48s.11-.35.34-.48l3.57-2.06c.22-.13.5-.19.83-.19s.6.06.83.2l.71.41c.02-.53.22-1.07.6-1.62s1.03-1.09,1.95-1.62l1.84-1.06Z" fill="#72593e"/><path d="M311.65,342.46c.22-.13.5-.2.83-.2s.6.06.83.2l3.1,1.79c.23.13.34.29.34.48s-.11.35-.34.48l-2.8,1.61c-1.88,1.09-1.89,2.18,0,3.26l7.56,4.37c.23.13.34.29.34.48s-.11.35-.34.48l-3.87,2.24c-.23.13-.5.2-.83.2s-.6-.06-.83-.2l-14.32-8.27c-.23-.13-.34-.29-.34-.48s.11-.35.34-.48l3.57-2.06c.22-.13.5-.19.83-.2.33,0,.6.07.83.2l.71.41c.02-.53.22-1.07.6-1.62s1.03-1.09,1.95-1.62l1.84-1.06Z" fill="#72593e"/><path d="M338.08,335.07c.33.17.73.39,1.21.67s.87.51,1.15.7c.94.59,1.64,1.25,2.09,1.99.45.73.64,1.49.57,2.28s-.43,1.58-1.08,2.38-1.59,1.56-2.84,2.28-2.57,1.27-3.95,1.64-2.76.58-4.12.62-2.68-.07-3.95-.33-2.42-.66-3.44-1.21c-.33-.17-.73-.39-1.21-.67s-.87-.51-1.15-.7c-.96-.58-1.67-1.24-2.12-1.97s-.64-1.5-.55-2.29c.08-.79.44-1.59,1.08-2.4.63-.8,1.58-1.57,2.83-2.29s2.57-1.27,3.96-1.63c1.39-.37,2.78-.57,4.15-.62s2.69.06,3.95.33s2.4.67,3.43,1.21Zm-8.97,7.74c.84.41,1.73.6,2.67.57.94-.04,1.82-.29,2.64-.76s1.26-.98,1.32-1.53c.06-.54-.27-1.06-.98-1.54-.27-.2-.59-.41-.98-.64-.39-.22-.76-.41-1.11-.57-.84-.41-1.73-.6-2.67-.57-.94.04-1.83.29-2.64.76-.82.47-1.26.98-1.32,1.53-.06.54.27,1.06.98,1.54.27.2.59.41.98.64.39.22.76.41,1.11.57Z" fill="#72593e"/><path d="M346.07,322.58c.23-.13.5-.19.83-.2.33,0,.6.07.83.2l3.1,1.79c.23.13.34.29.34.48s-.11.35-.34.48l-2.8,1.61c-1.88,1.09-1.89,2.18,0,3.26l7.56,4.37c.23.13.34.29.34.48s-.11.35-.34.48l-3.87,2.24c-.23.13-.5.2-.83.2s-.6-.06-.83-.2l-14.32-8.27c-.23-.13-.34-.29-.34-.48s.11-.35.34-.48l3.57-2.06c.23-.13.5-.19.83-.19s.61.06.83.2l.71.41c.02-.53.22-1.07.6-1.62s1.03-1.09,1.95-1.62l1.84-1.06Z" fill="#72593e"/></g></g></g><g transform="translate(0-.346112)"><g><g><path d="M134.13,231.82c-4.22-.17-6.08.25-5.43,4.71.66,4.46.85,7.9.85,7.9s7.51.22,11-1.73c3.48-1.95-.08-10.63-6.42-10.88Z" fill="#f58103"/><path d="M134.13,231.82c-4.22-.17-6.08.25-5.43,4.71.66,4.46.85,7.9.85,7.9s7.51.22,11-1.73c3.48-1.95-.08-10.63-6.42-10.88Z" opacity="0.5"/><path d="M134.81,250.97c-.27,0-.55-.03-.83-.08-2.3-.45-3.8-2.69-3.35-4.99c1.09-5.54,2.17-9.81,3.12-13.59c1.39-5.5,2.48-9.85,3.15-15.98c1.05-9.6-1.99-18.77-5.18-24.14-1.2-2.02-.53-4.62,1.49-5.82c2.01-1.2,4.62-.53,5.82,1.49c1.89,3.18,7.92,14.7,6.32,29.4-.73,6.72-1.95,11.55-3.36,17.14-.93,3.67-1.98,7.84-3.03,13.16-.4,2.02-2.18,3.43-4.16,3.43Z" fill="#72593e"/><g><path d="M124.65,256.72c0,0-.41,1.78-.03,2.49.59,1.1,3.85,2.45,5.57,3.16s3.62,1.76,5.42,5.03c1.93,3.5,5.42,5.88,9.34,7.37c3.91,1.49,9.61,2.26,16.29.59c6.69-1.67,6.97-5.7,6.97-5.7s.1-3.78-1.62-4.26c-1.73-.48-41.94-8.68-41.94-8.68Z" fill="#455a64"/><path d="M127.35,242.68c-.19,1.19-.46,2.37-.81,3.52-.96,3.17-2.55,6.44-1.89,10.52c1.1,1.96,3.39,2.7,5.11,3.46c2.32,1.03,3.97,1.71,5.63,3.71c2.97,3.59,5.81,8.13,14.79,9.3s15.52-2.1,16.99-4.74c1.47-2.63-.19-4.91-6.07-7.6-2.99-1.36-9.81-6.97-10.59-7.71-.76-.72-1.33-1.56-1.92-2.41-1.19-1.73-2.11-3.92-2.4-5.99-.27-1.93-.17-4.43.33-6.84.11-.52.36-1.05.14-1.53-.57-1.25-2.54-.92-3.63-.84-1.63.13-3.24.48-4.84.83-.52.11-1.07.24-1.44.62-.36.36-.5.88-.63,1.38-.2.75-.42,1.5-.67,2.24-.17.51-.39,1.07-.88,1.3-.48.23-1.09.04-1.45-.35s-.51-.94-.55-1.47c-.03-.53.04-1.06.06-1.6.02-.51-.01-1.05-.29-1.48-.59-.93-2.08-1.07-2.46-2.11-.2-.55.02-1.2.45-1.61s1.02-.6,1.6-.66s1.12-.04,1.76-.03l.31-1.23c-1.53-.14-2.7-.08-4.09.51-.74.32-1.56,1-1.87,1.77-.55,1.34-.22,2.45-.15,3.06.26,2.36-.17,3.63-.55,5.97Z" fill="#f58103"/><path d="M127.35,242.68c-.19,1.19-.46,2.37-.81,3.52-.96,3.17-2.55,6.44-1.89,10.52c1.1,1.96,3.39,2.7,5.11,3.46c2.32,1.03,3.97,1.71,5.63,3.71c2.97,3.59,5.81,8.13,14.79,9.3s15.52-2.1,16.99-4.74c1.47-2.63-.19-4.91-6.07-7.6-2.99-1.36-9.81-6.97-10.59-7.71-.76-.72-1.33-1.56-1.92-2.41-1.19-1.73-2.11-3.92-2.4-5.99-.27-1.93-.17-4.43.33-6.84.11-.52.36-1.05.14-1.53-.57-1.25-2.54-.92-3.63-.84-1.63.13-3.24.48-4.84.83-.52.11-1.07.24-1.44.62-.36.36-.5.88-.63,1.38-.2.75-.42,1.5-.67,2.24-.17.51-.39,1.07-.88,1.3-.48.23-1.09.04-1.45-.35s-.51-.94-.55-1.47c-.03-.53.04-1.06.06-1.6.02-.51-.01-1.05-.29-1.48-.59-.93-2.08-1.07-2.46-2.11-.2-.55.02-1.2.45-1.61s1.02-.6,1.6-.66s1.12-.04,1.76-.03l.31-1.23c-1.53-.14-2.7-.08-4.09.51-.74.32-1.56,1-1.87,1.77-.55,1.34-.22,2.45-.15,3.06.26,2.36-.17,3.63-.55,5.97Z" opacity="0.35"/><path d="M144.23,271.63c0,0-.46-6.37,6-10.24s10.66-1.94,12.81-.6c2.55,1.59,6.28,5.02,4.35,7.82-2.09,3.02-5.66,4.63-12.47,5.17-6.82.54-10.68-2.15-10.68-2.15Z" fill="#fafafa"/><g><path d="M135.33,248.41c.24.02.48-.06.64-.24.89-.96,6.29-4.23,10.39-2.54.1-.15.27-1.15-.23-1.46-5.53-1.39-10.25,1.86-11.32,3.02-.28.3-.25.77.07,1.04.13.11.28.17.44.19Z" fill="#fafafa"/><path d="M148.07,249.95c.01-.71-.41-1.35-.66-1.53-4.66-.67-9.34,2.26-10.36,3.37-.28.3-.25.77.07,1.04.13.11.28.17.44.18.24.02.48-.06.64-.24.86-.93,6.18-4.02,9.86-2.83Z" fill="#fafafa"/><path d="M155.13,256.87c-.07-.48-1.01-1.2-1.8-1.4-5.15-.35-9.5,3.57-10.35,4.87-.23.35-.12.8.24,1.01.15.09.31.12.47.11.24-.02.46-.14.59-.34.75-1.15,5.96-5.55,10.84-4.25Z" fill="#fafafa"/><path d="M140.24,257.5c.24,0,.47-.12.61-.32.76-1.05,5.27-5,9.92-3.81.03-.41-.82-1.21-1.24-1.33-4.62-.42-9.07,3.07-9.95,4.3-.24.33-.15.79.2,1.02.14.09.3.14.46.13Z" fill="#fafafa"/></g></g></g><g><path d="M87.21,246.57c-4.2-.35-6.09,0-5.62,4.48.47,4.49.51,7.92.51,7.92s7.5.53,11.06-1.26c3.56-1.8.37-10.62-5.95-11.14Z" fill="#f58103"/><path d="M87.21,246.57c-4.2-.35-6.09,0-5.62,4.48.47,4.49.51,7.92.51,7.92s7.5.53,11.06-1.26c3.56-1.8.37-10.62-5.95-11.14Z" opacity="0.5"/><path d="M87.08,265.74c-.27-.01-.55-.05-.82-.12-2.28-.55-3.68-2.85-3.13-5.13c1.32-5.49,2.58-9.71,3.69-13.45c1.62-5.44,2.9-9.74,3.82-15.84c1.45-9.55-1.2-18.83-4.16-24.34-1.11-2.07-.34-4.64,1.73-5.75c2.06-1.11,4.64-.34,5.75,1.73c1.75,3.26,7.3,15.02,5.08,29.64-1.01,6.68-2.43,11.46-4.08,16.98-1.08,3.63-2.3,7.75-3.58,13.02-.48,2.01-2.32,3.33-4.3,3.25Z" fill="#72593e"/><g><path d="M76.68,271.05c0,0-.48,1.76-.13,2.48.54,1.13,3.75,2.61,5.44,3.39s3.54,1.91,5.2,5.26c1.78,3.58,5.17,6.1,9.02,7.75c3.84,1.65,9.5,2.66,16.26,1.27c6.75-1.39,7.2-5.4,7.2-5.4s.26-3.77-1.44-4.32-41.54-10.44-41.54-10.44Z" fill="#455a64"/><path d="M79.97,257.14c-.24,1.18-.56,2.34-.96,3.48-1.1,3.13-2.82,6.32-2.33,10.43c1.02,2,3.28,2.84,4.96,3.67c2.27,1.12,3.9,1.87,5.47,3.94c2.82,3.71,5.46,8.37,14.39,9.91s15.6-1.45,17.18-4.02.02-4.91-5.75-7.85c-2.93-1.49-9.51-7.38-10.26-8.15-.73-.75-1.26-1.61-1.81-2.49-1.12-1.78-1.94-4.01-2.15-6.08-.19-1.94.01-4.43.61-6.82.13-.51.41-1.04.21-1.52-.52-1.28-2.5-1.03-3.59-.99-1.64.06-3.26.34-4.87.62-.52.09-1.08.2-1.47.55-.38.34-.54.86-.69,1.35-.23.74-.49,1.48-.76,2.21-.19.51-.44,1.05-.94,1.27-.49.21-1.09,0-1.44-.41s-.48-.96-.49-1.49.08-1.06.12-1.59c.04-.51.03-1.05-.23-1.49-.55-.95-2.04-1.16-2.37-2.21-.18-.56.07-1.2.52-1.59.44-.39,1.04-.55,1.63-.59s1.12,0,1.76.05l.36-1.22c-1.52-.2-2.7-.2-4.1.34-.75.29-1.6.94-1.94,1.68-.6,1.32-.32,2.44-.28,3.06.16,2.37-.33,3.62-.8,5.94Z" fill="#f58103"/><path d="M79.97,257.14c-.24,1.18-.56,2.34-.96,3.48-1.1,3.13-2.82,6.32-2.33,10.43c1.02,2,3.28,2.84,4.96,3.67c2.27,1.12,3.9,1.87,5.47,3.94c2.82,3.71,5.46,8.37,14.39,9.91s15.6-1.45,17.18-4.02.02-4.91-5.75-7.85c-2.93-1.49-9.51-7.38-10.26-8.15-.73-.75-1.26-1.61-1.81-2.49-1.12-1.78-1.94-4.01-2.15-6.08-.19-1.94.01-4.43.61-6.82.13-.51.41-1.04.21-1.52-.52-1.28-2.5-1.03-3.59-.99-1.64.06-3.26.34-4.87.62-.52.09-1.08.2-1.47.55-.38.34-.54.86-.69,1.35-.23.74-.49,1.48-.76,2.21-.19.51-.44,1.05-.94,1.27-.49.21-1.09,0-1.44-.41s-.48-.96-.49-1.49.08-1.06.12-1.59c.04-.51.03-1.05-.23-1.49-.55-.95-2.04-1.16-2.37-2.21-.18-.56.07-1.2.52-1.59.44-.39,1.04-.55,1.63-.59s1.12,0,1.76.05l.36-1.22c-1.52-.2-2.7-.2-4.1.34-.75.29-1.6.94-1.94,1.68-.6,1.32-.32,2.44-.28,3.06.16,2.37-.33,3.62-.8,5.94Z" opacity="0.35"/><path d="M95.62,286.77c0,0-.19-6.39,6.42-9.98s10.74-1.49,12.82-.06c2.48,1.7,6.07,5.28,4.01,7.99-2.22,2.93-5.85,4.39-12.68,4.64s-10.58-2.6-10.58-2.6Z" fill="#fafafa"/><g><path d="M87.7,263.2c.23.03.48-.04.65-.21.93-.92,6.47-3.96,10.49-2.11.1-.15.32-1.14-.17-1.46-5.47-1.62-10.32,1.43-11.44,2.54-.29.29-.28.76.03,1.04.12.12.28.18.43.2Z" fill="#fafafa"/><path d="M100.37,265.27c.04-.71-.35-1.36-.59-1.55-4.62-.86-9.43,1.87-10.5,2.93-.29.29-.28.76.03,1.04.12.12.28.18.43.2.23.03.48-.04.65-.21.9-.9,6.34-3.76,9.97-2.41Z" fill="#fafafa"/><path d="M107.13,272.49c-.05-.48-.96-1.24-1.74-1.47-5.13-.57-9.64,3.17-10.54,4.43-.24.34-.15.79.2,1.02.14.09.3.13.46.13.24,0,.47-.12.61-.32.8-1.12,6.18-5.29,11.01-3.79Z" fill="#fafafa"/><path d="M92.23,272.49c.24,0,.47-.1.62-.29.8-1.01,5.48-4.78,10.07-3.39.05-.41-.77-1.25-1.18-1.38-4.6-.61-9.19,2.69-10.13,3.88-.26.32-.19.79.15,1.03.14.1.3.15.46.15Z" fill="#fafafa"/></g></g></g><path d="M195.61,172.85c-4.06,0-9.12-1.42-14.74-5.26-1.38-.95-1.74-2.83-.79-4.22.95-1.38,2.83-1.74,4.22-.79c7.57,5.17,12.98,4.56,14.98,3.39.81-.48,1.42-1.6,1.65-3.09.47-2.97-.51-7.82-4.69-12.53-8.84-9.98-19.93-15.12-37.08-17.16-1.66-.2-2.85-1.71-2.65-3.37s1.7-2.86,3.37-2.65c18.51,2.21,31.13,8.12,40.91,19.16c4.74,5.35,7.03,11.9,6.13,17.51-.53,3.33-2.16,5.95-4.58,7.37-1.7.99-3.99,1.64-6.73,1.64Z" transform="translate(0 0.000005)" fill="#72593e"/><g><path d="M157.23,95.03c4.59-4.32,8.63-17.04,6.55-30.4-2.09-13.36-14.43-25.86-19.35-28.56s-8.38.79-7.04,5.77c1.82,6.78,4.09,22.02-8.56,28.73c0,0,1.87,9.95,8.39,17.85s20.01,6.6,20.01,6.6Z" fill="#f58103"/><path d="M157.23,95.03c4.59-4.32,8.63-17.04,6.55-30.4-2.09-13.36-14.43-25.86-19.35-28.56s-8.38.79-7.04,5.77c1.82,6.78,4.09,22.02-8.56,28.73c0,0,1.87,9.95,8.39,17.85s20.01,6.6,20.01,6.6Z" opacity="0.75" fill="#fff"/><path d="M140.07,44.47c-1.12,0-2.22-.16-3.24-.49-.32-.1-.5-.44-.39-.76.1-.32.44-.5.76-.39c3.98,1.27,9.35-.21,10.7-4.37.1-.32.44-.49.76-.39s.49.45.39.76c-1.21,3.74-5.16,5.64-8.98,5.64Z" fill="#f58103"/><path d="M144.62,52.86c-3.41,0-5.77-1.34-6.68-1.86-.29-.17-.39-.54-.23-.83s.54-.39.83-.23c1.87,1.06,4.83,2.35,9,1.35c5.52-1.33,6.7-4.56,6.95-5.89.06-.33.38-.54.71-.48s.55.38.48.71c-.29,1.56-1.65,5.35-7.86,6.85-1.15.28-2.22.39-3.2.39Z" fill="#f58103"/><path d="M150.9,63.38h-.05c-7.13-.01-11.54-3.58-13.54-5.7-.23-.24-.22-.63.03-.86.24-.23.63-.22.86.03c1.86,1.98,5.99,5.3,12.66,5.32h.05c7.79,0,10.11-3.66,11.1-5.22.18-.28.56-.37.84-.19s.37.55.19.84c-1,1.59-3.66,5.79-12.12,5.79Z" fill="#f58103"/><path d="M154.08,75.59c-2.23,0-4.63-.33-7.09-1.16-5.74-1.93-9.88-5.26-12.32-9.89-.16-.3-.04-.66.25-.82.29-.15.66-.04.82.25c2.31,4.4,6.12,7.45,11.63,9.3c7.61,2.56,14.87.01,16.89-1.85.25-.23.63-.21.86.03.23.25.21.63-.03.86-1.59,1.47-5.81,3.27-11.02,3.27Z" fill="#f58103"/><path d="M138.74,84.19c10.88-12.43,6.68-32.02,4-37.64-3.77-7.9-2.17-11.37,1.12-10.75-4.61-2.14-7.76,1.26-6.48,6.05c1.82,6.78,4.09,22.02-8.56,28.73c0,0,1.64,8.71,7.18,16.3.91-.77,1.82-1.65,2.73-2.68Z" opacity="0.1"/></g><g><path d="M167.22,168.81c-3.7-9.01-5.54-33.9-4.78-50.27c2.48-.52,5.51-3.9,4.29-8.27-1.1-3.93-2.17-4.45-5.48-8.69-2.37-3.03-4.01-7.03-6.13-10.28-7.27-11.14-16.53-18.57-30.14-21.78-2.34-.55-3.74-2.96-3.07-5.27.87-2.99,1.61-6.92.7-9.8-1.69-5.32-5.04-5.86-7.27-4.87-2.23.98-2.39,3.19-1.72,6.77.67,3.57-.38,4.19-1.57,3.81s-2.07-6.87-10.38-9.92-13.92.95-13.79,4.38c.15,3.74,2.87,4.03,8.64,4.66c2.45.27,5.06,1.3,6.71,2.98c2.32,2.36,1.03,6.34-2.19,7.06C79.91,74.03,63.5,91.64,58.86,115.4c-.7,3.63-1.19,8.01-1.48,12.9v0c0,0-2.12-3.98-6.66-5.1-4.08-1-5.7.95-5.64,2.77.05,1.82,2.33,2.69,4.62,3.64c3.67,1.52,4.27,2.93,4.27,2.93s-3.17-.54-5.68.57-3.17,3.82-.74,4.86c1.36.58,3.42-.46,5.55-.95c1.34-.31,3.82-.8,3.96.81c0,0,0,0,0,0-.05,3.76-.02,7.7.09,11.74.31,11.41,2.31,19.22.48,29.57-1.38,7.84-8.24,14.04-1.35,20.51c3.08,2.89,6.68,3.12,9.5,2.63c2.31-.4,4.47,1.03,5,3.32.77,3.26,3.12,7.21,9.76,8.97c6.13,1.62,10.05-.24,12.44-2.52c1.73-1.65,4.49-1.67,6.03.17c2.55,3.05,7.28,6.32,15.83,6.27c8.53-.04,12.85-3.75,14.99-6.91c1.26-1.86,3.72-2.54,5.65-1.39c3.25,1.92,8.47,3.46,14.97,0c4.83-2.58,6.08-7.21,6.2-10.97.08-2.46,2.3-4.39,4.74-4.02c3.73.57,7.53-.4,10.09-4.28c4.62-6.98-.9-14-4.23-22.12Z" fill="#f58103"/><g opacity="0.1"><path d="M49.69,129.62c3.67,1.52,4.27,2.93,4.27,2.93s-3.17-.54-5.68.57-3.17,3.82-.74,4.86c1.36.58,3.42-.46,5.55-.95c1.34-.31,3.82-.8,3.96.81c0,0,0,0,0,0-.05,3.76-.02,7.7.09,11.74.31,11.41,2.31,19.22.48,29.57-1.38,7.84-8.24,14.04-1.35,20.51c1.62,1.52,3.37,2.29,5.09,2.62-.21-.11-3.43-5.3.37-12.77c5.34-10.5,5.01-17.08,3.61-38.36-1.71-26.04,1.48-37.17,10.93-55.57c9.68-18.86,25.09-19.77,31.63-24.77c3.55-2.72,2.34-7.65-.77-10.78-2.61-2.63-6.69-3.69-9.1-3.94-5.27-.55-10.16-1.46-9.17-4.09-.67.83-1.02,1.75-.99,2.63.15,3.74,2.87,4.03,8.64,4.66c2.45.27,5.06,1.3,6.71,2.98c2.32,2.36,1.03,6.34-2.19,7.06-21.13,4.71-37.54,22.32-42.18,46.08-.7,3.63-1.19,8.01-1.48,12.9v0c0,0-2.12-3.98-6.66-5.1-4.08-1-5.7.95-5.64,2.77.05,1.82,2.33,2.69,4.62,3.64Z"/><path d="M76.27,205.71c-2.69-3.53-4.85-4.11-8.58-3.33c0,0-.01,0-.02,0c1.5.4,2.72,1.59,3.1,3.22.77,3.26,3.12,7.21,9.76,8.97c4.33,1.14,7.55.55,9.91-.7-9.59,2.09-11.48-4.63-14.17-8.16Z"/><path d="M122.34,217.27c-4.73.62-9.16-.45-14.14-4.09-5.37-3.93-7.99-3.57-11.32-2.24c0,0,0,0,0,0c.79.18,1.53.6,2.1,1.28c2.55,3.05,7.28,6.32,15.83,6.27c3.01-.01,5.48-.49,7.53-1.23Z"/><path d="M115.81,54.79c-.18-3.15,1.83-5.54,4.31-4.5-1.58-1.35-3.41-1.32-4.79-.71-2.23.98-2.39,3.19-1.72,6.77.67,3.57-.38,4.19-1.57,3.81-.18-.06-.35-.26-.54-.55v0c.91,2.03,1.81,4.05,3.89,2.92s.6-4.58.42-7.74Z"/></g></g><g><path d="M95.69,126.89c0,0,1.15,4.89,6.51,4.82c5.35-.07,5.94-2.5,8.13-5.81c2.19-3.32,6.89-4.06,10.98-4.13s7.91-4.71,5.72-9.4c0,0,.56,3.35-2.72,5.49s-7.63.21-11.93,2.27-4.66,6.68-7.82,8.15c-3.15,1.47-6.98.35-8.88-1.37Z" opacity="0.2"/><path d="M120.75,124.12c-.47,4.41-4.43,7.59-8.84,7.11-2.61-.28-4.79-1.78-6.03-3.88c2.12-1.98,2.93-5.4,6.51-7.23c2.83-1.44,4.98-.79,7.34-.85.81,1.42,1.21,3.11,1.02,4.86Z" fill="#455a64"/><path d="M93.99,124.43c.98,2.22,3.25,4.86,8.41,4.41c5.4-.47,4.97-6.18,9.98-8.73c4.59-2.34,7.4.83,12.21-2.45c4.34-2.96,1.88-8.81.25-10.01" fill="none" stroke="#455a64" stroke-width="1.21" stroke-linecap="round" stroke-miterlimit="10"/><path d="M118.66,123.24c-.02,1.22-1.01,2.19-2.23,2.18-1.22-.02-2.19-1.01-2.18-2.23.02-1.22,1.01-2.19,2.23-2.18c1.22.02,2.19,1.01,2.18,2.23Z" fill="#f5f5f5"/></g><g><path d="M162.44,118.81l-.53-.27c0,0-1.88-.13-2.95-1.12s-2.27-4.23-5.7-5.06c-3.42-.83-5.34.84-9.13,1s-5.07-2.46-5.83-4.66c-.4,3.73.65,6.23,3.36,7.33c3,1.22,8.43-1.34,10.75,0s3.66,4.11,6.55,4.43c1.67.19,2.79-.27,3.45-.69.01-.32.02-.64.04-.95Z" opacity="0.2"/><path d="M158.95,117.42c-.93,3.64-4.42,6.15-8.28,5.74-4.22-.46-7.28-4.26-6.82-8.48.05-.45.13-.9.27-1.32c2.82-.07,5.39-2.03,9.14-1c3.3.91,3.52,3.52,5.69,5.06Z" fill="#455a64"/><path d="M138.43,106.17c-.77,2.15.25,4.94,2.45,6.27c4.36,2.64,7.26-1.5,12.37-.09c3.83,1.06,3.52,4.37,6.88,5.71.65.26,1.68.5,2.32.47" fill="none" stroke="#455a64" stroke-width="1.21" stroke-linecap="round" stroke-miterlimit="10"/><path d="M155.62,117.01c-.01,1.14-.95,2.05-2.08,2.03s-2.05-.95-2.03-2.08.95-2.05,2.08-2.03c1.14.01,2.05.95,2.03,2.08Z" fill="#f5f5f5"/></g><g><path d="M131.36,134.1c-10.39,4.65-19.52,13.84-23.74,23.97-2.6,6.25-1.18,11.44,2.3,12.62c6.88,2.32,14.59-8.4,22.25-12.14c7.59-3.7,13.91-.13,17.8-2.63c4.58-2.95,3.91-10.48,1.45-15.85-2.74-5.99-9.67-10.62-20.07-5.98Z" fill="#455a64"/><path d="M149.71,156.07c-3.81-13.25-16.25-17.37-28.87-15.38-5.79,4.78-10.52,10.88-13.23,17.38-2.6,6.25-1.18,11.44,2.3,12.62c6.88,2.32,14.59-8.4,22.25-12.14c7.43-3.62,13.63-.29,17.54-2.49Z" fill="#f28f8f"/><path d="M141.5,156.76c-12.77-3.43-21.01,7.54-25.04,7.44-4.04-.1-5.99-3.63-.39-12.59c5.55-8.88,17.61-11.39,22.85-8.78-5.23-2.58-11.62-3.17-18.07-2.15-5.79,4.78-10.52,10.88-13.23,17.38-2.6,6.25-1.18,11.44,2.3,12.62c6.88,2.32,14.59-8.4,22.25-12.14c3.4-1.66,6.54-1.86,9.33-1.8Z" opacity="0.1"/><g><path d="M146.4,144.08c-2.46,1.07-2.43,4.34-4.46,11.29-.14.49-.28.95-.42,1.4c3.42.08,6.31.54,8.45-.84.44-.28.82-.62,1.17-.98.5-5.27-2.14-11.99-4.74-10.86Z" fill="#f5f5f5"/><path d="M151.15,154.94c.06-.61.07-1.24.05-1.88-.66.85-1.7,1.68-2.86,1.91-1.87.37-3.95,0-3.95,0s.64-4.06,1.28-7.55c.42-2.34,1.83-3.36,2.94-2.55-.69-.77-1.44-1.12-2.2-.79-2.46,1.07-2.43,4.34-4.46,11.29-.14.49-.28.95-.42,1.4c3.42.08,6.31.54,8.45-.84.44-.28.82-.62,1.17-.98Z" fill="#e0e0e0"/></g><g><path d="M120.01,152.71c-2.46,1.07-2.43,4.34-4.46,11.29-.89,3.04-1.65,5.28-2.24,6.88c3.67-.71,7.52-4.01,11.43-7.18v0c.55-5.29-2.11-12.13-4.74-10.99Z" fill="#f5f5f5"/><path d="M124.75,163.7c.09-.84.09-1.73.02-2.61-3.89,2.52-6.23,5.22-6.84,4.88-.62-.34-.09-3.07.18-6.08.32-3.63.77-7.39,3.18-7.12-.42-.2-.85-.25-1.28-.06-2.46,1.07-2.43,4.34-4.46,11.29-.89,3.04-1.65,5.28-2.24,6.88c3.67-.71,7.52-4.01,11.43-7.18v0Z" fill="#e0e0e0"/></g></g><g id="eShd49fTgqk136" transform="matrix(.999551-.029954 0.029954 0.999551-4.539767 2.220184)"><path d="M35.3,197.84c-.32,0-.64-.05-.96-.16-1.59-.53-2.45-2.25-1.91-3.84c8.08-24.09,19.95-34.27,36.49-42.89c1.48-.78,3.32-.2,4.09,1.29.78,1.49.2,3.32-1.29,4.09-15.59,8.12-26.07,17.18-33.54,39.43-.43,1.27-1.61,2.07-2.88,2.07Z" fill="#72593e"/><path d="M33.17,191.68c-1.27,3.3-3.21,4.64-5.06,6.58s-3.84,3.13-5.78,6.18-2.84,8.19-2.26,10.6c.33,1.36,2.21,1.38,2.32.18.41-4.43,1.15-8.25,4.26-10.63c0,0-2.11,4.28-2.39,8.18s.23,8.56,1.85,8.79s1.55-1.42,1.33-3.77c-.23-2.34-.44-8.55,2.69-12.98c0,0-1.11,6.54,0,10.71s3.28,7.16,4.47,6.65c1.2-.51,1.14-1.31-.16-4.52-1.01-2.49-.96-5.65-.7-8.33.26-2.73.89-4.64,2.72-6.54.8-.83,1.64-1.29,2.31-1.48.76-.22,2.06.22,2.76.9c1.13,1.1,2.12,2.48,2.43,4.76.29,2.1,3.76,2.29,2.46-3.61s-8.56-6.94-6.74-11.76l-6.51.08Z" fill="#72593e"/></g><path id="eShd49fTgqk139" d="M184.22,169.59l2.76-5.36c-4.29-2.24.62-8.83-1.87-14.35s-5.15-3.29-4.13-1.43c1.11,2.01,1.32,3.76.89,5.27-.42,1.47-1.37,2.32-2.39,1.46-1.02-.87-1.66-3.73-5.37-6.88-3.37-2.86-6.56-3.41-7.95-3.42-2.9,0-1.88,2.01-.48,2.57c5.99,2.4,6.73,3.73,8.24,5.69s1.31,3.09.52,2.85-1.96-1.93-5.62-3.61-7.7-1.67-8.34-.9-.56,1.76,1.18,2.17c1.74.42,5.41,1.33,7.41,2.49c2.55,1.47,3.71,3.37,3.29,3.93s-2.6-.99-5.92-1.6-5.03-.61-6.4-.08c-1.02.4-.66,2.45,2.39,2.59c2.46.12,6.48,1.31,8.72,2.83c1.25.85,2.91,2.01,5.06,2.95c2.35,1.02,3.77,1.46,8,2.83Z" transform="translate(.000945 0.057844)" fill="#72593e"/><g><path d="M84.93,88.63c3.51,1.84,9.14,11.42,2.24,21.61s-16.67,9.82-21.15,9.05c-2.8-1.36-17.45-7.71-18.18-27.98-.72-20.27,11.75-28.02,14.87-29.81s9.34-2.34,8.57,4.6-1.5,13.1,3.54,17.56c3.95,3.5,10.11,4.97,10.11,4.97Z" fill="#f58103"/><path d="M84.93,88.63c3.51,1.84,9.14,11.42,2.24,21.61s-16.67,9.82-21.15,9.05c-2.8-1.36-17.45-7.71-18.18-27.98-.72-20.27,11.75-28.02,14.87-29.81s9.34-2.34,8.57,4.6-1.5,13.1,3.54,17.56c3.95,3.5,10.11,4.97,10.11,4.97Z" opacity="0.75" fill="#fff"/><path d="M58.67,114.98c-.58,0-1.08-.03-1.47-.07-.33-.04-.57-.34-.54-.67.04-.33.34-.57.67-.54c3.05.33,12.35-.35,18.77-7.36c6.58-7.18,6.84-14.16,5.9-18.76-.07-.33.14-.65.47-.72.32-.07.65.14.72.47c1,4.87.73,12.27-6.19,19.82-5.93,6.47-14.21,7.82-18.32,7.82Z" fill="#f58103"/><path d="M54.96,101.6c-3.67,0-6.39-.59-6.62-.64-.33-.07-.53-.4-.46-.72.07-.33.4-.53.73-.46.46.1,11.33,2.46,19.13-2.76c7.06-4.73,7.67-10.45,7.93-12.89.04-.33.35-.57.67-.54.33.04.57.33.54.67-.26,2.38-.94,8.72-8.47,13.76-4.29,2.88-9.44,3.58-13.45,3.58Z" fill="#f58103"/><path d="M57.86,85.44c-5.23,0-8.65-1.65-10.38-2.78-.28-.18-.36-.56-.17-.84.18-.28.56-.36.84-.18c2.02,1.32,6.48,3.38,13.71,2.27c5.71-.87,8.18-2.71,10-4.56.23-.24.62-.24.86,0c.24.23.24.62,0,.86-1.97,2-4.63,3.99-10.69,4.91-1.5.23-2.89.33-4.18.33Z" fill="#f58103"/><path d="M64.22,73.75c-1.13,0-2.35-.14-3.66-.48-3.21-.84-5.61-2.67-6.93-5.31-.15-.3-.03-.66.27-.81s.66-.03.82.27c1.18,2.35,3.25,3.93,6.15,4.68c4.52,1.18,7.94-.22,10.02-1.6.28-.19.66-.11.84.17.19.28.11.66-.17.84-1.68,1.12-4.17,2.25-7.34,2.25Z" fill="#f58103"/><path d="M73.93,112.06c-4.42-.4-9.96-1.66-14.75-9-4.79-7.35-6.28-22.65-1.91-31.88c2.88-6.07,8.63-11.63,12.78-9.77-1.85-1.73-5.27-1.1-7.34.09-3.12,1.8-15.59,9.55-14.87,29.81.72,20.27,15.38,26.62,18.18,27.98c4.48.77,14.25,1.14,21.15-9.05c4.62-6.82,3.62-13.37,1.4-17.51v0c3.47,10.87-8.07,19.92-14.64,19.32Z" opacity="0.1"/></g><path id="eShd49fTgqk148" d="M83,109.96c0,0-5.21,5.75-5.26,11.28-.02,2.8,2,5.36,5.26,5.36s5.28-2.56,5.26-5.36c-.05-5.53-5.26-11.28-5.26-11.28Z" fill="#fafafa"/></g></g><g><g><g><g><path d="M261.56,18.15L197.08,55.33c-.67.39-1.21,1.33-1.21,2.1v40.54c0,.77.55,1.71,1.22,2.09l4.35,2.44c.67.38,1.76.38,2.43-.01l64.48-37.18c.67-.39,1.21-1.33,1.21-2.1v-40.54c0-.77-.55-1.71-1.22-2.09l-4.35-2.44c-.67-.38-1.76-.38-2.43.01Z" fill="#f58103"/><path d="M202.66,101.79v-40.54c0-.77.54-1.71,1.21-2.1l64.48-37.18c.67-.39,1.21-.07,1.21.7v40.53c0,.77-.54,1.71-1.21,2.1l-64.48,37.18c-.67.39-1.21.07-1.21-.7Z" transform="translate(0-.947161)" fill="#f58103"/><path d="M203.87,102.49c-.72.41-1.83.39-2.44.01l-4.34-2.44c-.67-.38-1.22-1.31-1.22-2.09v-40.54c0-.4.15-.85.39-1.24l6.76,3.86c-.22.38-.36.81-.36,1.19v40.53c0,.71.5,1.12,1.21.7Z" opacity="0.2"/><path d="M269.55,22.45c-.1-.61-.59-.83-1.2-.48L203.87,59.15c-.34.2-.64.53-.86.91l-6.77-3.86c.22-.36.51-.68.84-.86l64.48-37.18c.67-.39,1.75-.39,2.43-.01l4.34,2.44c.61.35,1.12,1.15,1.21,1.87Z" opacity="0.4" fill="#fff"/></g><g><path d="M195.87,71.84l-9.76,9.93c-.52.53-.34,1.32.18,1.66.2.13,6.76,3.89,6.76,3.89l9.61-11.57-6.79-3.91Z" fill="#f58103"/><path d="M195.87,71.84l-9.76,9.93c-.52.53-.34,1.32.18,1.66.2.13,6.76,3.89,6.76,3.89l9.61-11.57-6.79-3.91Z" opacity="0.1"/><path d="M202.66,75.75l-9.76,9.93c-.72.73-.1,1.96.92,1.82l8.85-1.28c.95,0,.95-10.47,0-10.47Z" fill="#f58103"/></g></g><g><path d="M210.56,72.47c.04-1.13.2-2.27.47-3.41.28-1.14.67-2.22,1.18-3.24s1.13-1.95,1.85-2.8c.73-.85,1.57-1.54,2.52-2.09.94-.54,1.78-.81,2.51-.81s1.36.22,1.86.65c.51.43.9,1.06,1.18,1.88s.43,1.78.47,2.86c.03.84.04,1.72.04,2.65s-.01,1.81-.04,2.64c-.04,1.13-.2,2.27-.47,3.41-.28,1.14-.67,2.23-1.18,3.25-.51,1.03-1.13,1.96-1.86,2.8s-1.57,1.53-2.51,2.07c-.95.55-1.79.83-2.52.83s-1.35-.21-1.85-.65c-.51-.44-.9-1.07-1.18-1.89s-.43-1.78-.47-2.86c-.03-.8-.04-1.66-.04-2.59s.01-1.83.04-2.7Zm8.48.25c.01-.36.03-.77.04-1.21s.02-.89.02-1.35s0-.89-.02-1.31c-.01-.42-.03-.79-.04-1.12-.03-.48-.09-.9-.2-1.25s-.26-.63-.46-.82-.45-.29-.74-.3c-.3,0-.64.1-1.04.33s-.75.52-1.04.87c-.3.35-.54.74-.74,1.16s-.35.87-.46,1.35-.18.98-.2,1.49c-.03.35-.04.74-.05,1.17c0,.43,0,.87,0,1.33s0,.9,0,1.33.02.82.05,1.16c.05.96.27,1.66.67,2.08.39.43.99.41,1.79-.05s1.39-1.13,1.78-2.01.61-1.83.68-2.86Z" fill="#455a64"/><path d="M234.72,62.71c.01.29.02.67.02,1.13s0,.85-.02,1.16c-.03.97-.17,1.94-.42,2.92-.26.98-.61,1.91-1.06,2.8-.45.88-.99,1.69-1.63,2.41-.64.73-1.35,1.31-2.13,1.77-.79.45-1.5.69-2.14.7s-1.18-.17-1.63-.53-.8-.89-1.06-1.57-.4-1.5-.43-2.43c-.01-.29-.02-.67-.02-1.13s0-.85.02-1.16c.01-.96.15-1.93.41-2.91s.61-1.92,1.07-2.8c.46-.89,1-1.7,1.64-2.44.64-.73,1.35-1.33,2.14-1.78s1.5-.68,2.13-.68c.64,0,1.18.18,1.64.54s.81.88,1.06,1.57.39,1.5.42,2.44Zm-7.03,6.2c.04.73.22,1.22.53,1.46.32.25.73.22,1.25-.08s.93-.75,1.25-1.36.49-1.3.53-2.08c.03-.31.04-.66.04-1.03s-.01-.71-.04-.99c-.04-.73-.22-1.22-.53-1.46-.32-.24-.73-.22-1.25.08s-.93.75-1.25,1.36-.49,1.3-.53,2.08c-.03.31-.04.66-.04,1.03s.01.71.04.99Z" fill="#455a64"/><path d="M242.6,67.32c-.37.22-.7.35-.99.39-.28.04-.53.04-.73-.02-.21-.06-.38-.15-.52-.28s-.26-.25-.35-.38v6.33c0,.22-.05.44-.15.65-.1.22-.23.37-.37.45l-2.43,1.41c-.14.08-.26.07-.37-.03-.1-.1-.15-.26-.15-.48v-19.51c0-.22.05-.44.15-.65.1-.22.23-.37.37-.45l2.34-1.35c.14-.08.26-.07.37.03.1.1.15.26.15.48v.68c.12-.26.24-.55.38-.84.13-.3.3-.59.5-.87s.44-.56.73-.84.65-.54,1.07-.78c.58-.33,1.13-.52,1.64-.55s.97.13,1.35.47c.39.34.7.87.94,1.58.24.72.37,1.65.4,2.8.01.29.02.69.02,1.19s0,.91-.02,1.22c-.03,1.19-.16,2.27-.4,3.26s-.55,1.88-.94,2.67-.84,1.47-1.35,2.04c-.52.58-1.06,1.03-1.64,1.36Zm.87-7.7c.04-.58.04-1.13,0-1.67-.04-.67-.19-1.19-.44-1.56-.26-.37-.69-.38-1.29-.03-.28.16-.53.37-.73.63-.21.26-.38.54-.51.85-.14.31-.24.62-.32.94s-.13.64-.15.95c-.03.31-.04.67-.04,1.06s.01.74.04,1.02c.02.28.08.54.15.77.08.23.18.42.32.58.14.15.31.23.51.25.21.02.45-.05.73-.22.61-.35,1.04-.86,1.29-1.52.26-.66.41-1.35.44-2.07Z" fill="#455a64"/><path d="M254.46,55.54c0-.22-.05-.36-.14-.42-.1-.06-.26-.07-.49-.01s-.54.15-.92.29-.85.29-1.42.46c-.98.29-1.73.17-2.26-.36s-.79-1.47-.79-2.81c0-.67.11-1.36.33-2.06s.52-1.38.92-2.05c.39-.66.87-1.28,1.42-1.85s1.17-1.05,1.85-1.44c.67-.39,1.29-.62,1.85-.7.57-.08,1.05-.04,1.47.1.41.15.74.41.98.77.24.37.37.79.4,1.27.01.21-.04.43-.14.65-.11.22-.24.37-.38.45l-2.3,1.33c-.14.08-.25.1-.34.05-.08-.05-.18-.1-.3-.15s-.27-.07-.45-.06c-.19,0-.45.11-.78.3-.3.17-.54.38-.74.62s-.3.51-.3.81c0,.22.03.37.1.45s.19.1.39.06c.19-.04.46-.12.81-.25.35-.12.8-.28,1.37-.46c1.17-.38,2.02-.26,2.56.35.53.61.8,1.51.8,2.7c0,.67-.11,1.37-.33,2.08s-.54,1.41-.97,2.1c-.42.69-.94,1.34-1.55,1.95s-1.29,1.13-2.07,1.58c-.77.45-1.45.7-2.04.77s-1.08.01-1.48-.17c-.4-.19-.71-.47-.92-.84s-.33-.79-.36-1.25c-.01-.21.04-.43.15-.65s.23-.37.38-.46l2.4-1.38c.14-.08.24-.09.31-.01.06.07.15.14.25.21s.25.1.44.1.48-.12.87-.34.72-.49,1-.82c.28-.32.43-.63.43-.93Z" fill="#455a64"/><path d="M263.17,47.95c0,.22-.05.44-.15.65-.1.22-.23.37-.37.45l-2.43,1.41c-.14.08-.26.07-.37-.03-.1-.1-.15-.26-.15-.48v-12.82c0-.22.05-.44.15-.65.1-.22.23-.37.37-.45l2.43-1.41c.14-.08.26-.07.37.03.1.1.15.26.15.48v12.82Zm0,6.39c0,.22-.05.44-.15.65-.1.22-.23.37-.37.45l-2.43,1.41c-.14.08-.26.07-.37-.03-.1-.1-.15-.26-.15-.48v-3c0-.22.05-.44.15-.65.1-.22.23-.37.37-.45l2.43-1.41c.14-.08.26-.07.37.03.1.1.15.26.15.48v3Z" fill="#455a64"/></g></g></g>

</svg>
