<svg width="32" height="32" viewBox="0 0 32 32" fill="none" xmlns="http://www.w3.org/2000/svg">
<path d="M20.1667 28.1333L8.93332 16.9333C8.79998 16.8 8.70576 16.6556 8.65065 16.5C8.59465 16.3444 8.56665 16.1778 8.56665 16C8.56665 15.8222 8.59465 15.6556 8.65065 15.5C8.70576 15.3444 8.79998 15.2 8.93332 15.0667L20.1667 3.83334C20.4778 3.52222 20.8667 3.36667 21.3333 3.36667C21.8 3.36667 22.2 3.53334 22.5333 3.86667C22.8667 4.2 23.0333 4.58889 23.0333 5.03334C23.0333 5.47778 22.8667 5.86667 22.5333 6.2L12.7333 16L22.5333 25.8C22.8444 26.1111 23 26.4942 23 26.9493C23 27.4053 22.8333 27.8 22.5 28.1333C22.1667 28.4667 21.7778 28.6333 21.3333 28.6333C20.8889 28.6333 20.5 28.4667 20.1667 28.1333Z" fill="#FEFEFE"/>
</svg>
