<svg width="64" height="64" viewBox="0 0 64 64" fill="none" xmlns="http://www.w3.org/2000/svg">
<path d="M24 48C22.5333 48 21.2782 47.4782 20.2347 46.4346C19.1893 45.3893 18.6667 44.1333 18.6667 42.6666V10.6666C18.6667 9.19998 19.1893 7.94398 20.2347 6.89865C21.2782 5.85509 22.5333 5.33331 24 5.33331H48C49.4667 5.33331 50.7227 5.85509 51.768 6.89865C52.8116 7.94398 53.3333 9.19998 53.3333 10.6666V42.6666C53.3333 44.1333 52.8116 45.3893 51.768 46.4346C50.7227 47.4782 49.4667 48 48 48H24ZM24 42.6666H48V10.6666H24V42.6666ZM13.3333 58.6666C11.8667 58.6666 10.6107 58.1449 9.56533 57.1013C8.52178 56.056 8 54.8 8 53.3333V18.6666C8 17.9111 8.256 17.2773 8.768 16.7653C9.27822 16.2551 9.91111 16 10.6667 16C11.4222 16 12.056 16.2551 12.568 16.7653C13.0782 17.2773 13.3333 17.9111 13.3333 18.6666V53.3333H40C40.7556 53.3333 41.3893 53.5893 41.9013 54.1013C42.4116 54.6115 42.6667 55.2444 42.6667 56C42.6667 56.7555 42.4116 57.3884 41.9013 57.8986C41.3893 58.4106 40.7556 58.6666 40 58.6666H13.3333ZM24 10.6666V42.6666V10.6666Z" fill="#FEFEFE"/>
</svg>
