<svg width="33" height="33" viewBox="0 0 33 33" fill="none" xmlns="http://www.w3.org/2000/svg">
<path d="M8.25 2.75H20.625C21.3543 2.75 22.0538 3.03973 22.5695 3.55546C23.0853 4.07118 23.375 4.77065 23.375 5.5V6.875C23.375 7.23967 23.2301 7.58941 22.9723 7.84727C22.7144 8.10513 22.3647 8.25 22 8.25C21.6353 8.25 21.2856 8.10513 21.0277 7.84727C20.7699 7.58941 20.625 7.23967 20.625 6.875V5.5H8.25V27.5H20.625V26.125C20.625 25.7603 20.7699 25.4106 21.0277 25.1527C21.2856 24.8949 21.6353 24.75 22 24.75C22.3647 24.75 22.7144 24.8949 22.9723 25.1527C23.2301 25.4106 23.375 25.7603 23.375 26.125V27.5C23.375 28.2293 23.0853 28.9288 22.5695 29.4445C22.0538 29.9603 21.3543 30.25 20.625 30.25H8.25C7.52065 30.25 6.82118 29.9603 6.30546 29.4445C5.78973 28.9288 5.5 28.2293 5.5 27.5V5.5C5.5 4.77065 5.78973 4.07118 6.30546 3.55546C6.82118 3.03973 7.52065 2.75 8.25 2.75V2.75Z" fill="#FEFEFE"/>
<path d="M23.0931 22.4056C23.6294 22.9419 24.4956 22.9419 25.0319 22.4056L29.9654 17.4721C30.2231 17.2143 30.368 16.8646 30.368 16.5C30.368 16.1354 30.2231 15.7857 29.9654 15.5279L25.0319 10.5944C24.7705 10.3581 24.4284 10.2314 24.0762 10.2402C23.724 10.2491 23.3886 10.393 23.1395 10.6421C22.8904 10.8913 22.7465 11.2266 22.7376 11.5788C22.7287 11.931 22.8555 12.2731 23.0918 12.5345L25.6713 15.125H13.75C13.3853 15.125 13.0356 15.2699 12.7777 15.5277C12.5199 15.7856 12.375 16.1353 12.375 16.5C12.375 16.8647 12.5199 17.2144 12.7777 17.4723C13.0356 17.7301 13.3853 17.875 13.75 17.875H25.6713L23.0918 20.4655C22.8351 20.7232 22.6911 21.0721 22.6913 21.4358C22.6916 21.7995 22.8361 22.1483 23.0931 22.4056Z" fill="#FEFEFE"/>
</svg>
