<svg width="48" height="48" viewBox="0 0 48 48" fill="none" xmlns="http://www.w3.org/2000/svg">
<path d="M10 22H18C20.2 22 22 20.2 22 18V10C22 7.8 20.2 6 18 6H10C7.8 6 6 7.8 6 10V18C6 20.2 7.8 22 10 22ZM10 42H18C20.2 42 22 40.2 22 38V30C22 27.8 20.2 26 18 26H10C7.8 26 6 27.8 6 30V38C6 40.2 7.8 42 10 42ZM26 10V18C26 20.2 27.8 22 30 22H38C40.2 22 42 20.2 42 18V10C42 7.8 40.2 6 38 6H30C27.8 6 26 7.8 26 10ZM30 42H38C40.2 42 42 40.2 42 38V30C42 27.8 40.2 26 38 26H30C27.8 26 26 27.8 26 30V38C26 40.2 27.8 42 30 42Z" fill="#F58103"/>
</svg>
