<svg width="24" height="24" viewBox="0 0 24 24" fill="none" xmlns="http://www.w3.org/2000/svg">
<path d="M12.75 12C12.75 15.5156 10.0594 18.375 6.75 18.375C3.44063 18.375 0.75 15.5156 0.75 12C0.75 8.48438 3.44063 5.625 6.75 5.625C10.0594 5.625 12.75 8.48438 12.75 12ZM22.5 6C22.3011 6 22.1103 6.07902 21.9697 6.21967C21.829 6.36032 21.75 6.55109 21.75 6.75V17.25C21.75 17.4489 21.829 17.6397 21.9697 17.7803C22.1103 17.921 22.3011 18 22.5 18C22.6989 18 22.8897 17.921 23.0303 17.7803C23.171 17.6397 23.25 17.4489 23.25 17.25V6.75C23.25 6.55109 23.171 6.36032 23.0303 6.21967C22.8897 6.07902 22.6989 6 22.5 6ZM17.25 6C16.7156 6 15.7125 6.2625 14.9719 7.99688C14.5031 9.075 14.25 10.5 14.25 12C14.25 13.5 14.5031 14.925 14.9719 16.0031C15.7125 17.7375 16.7156 18 17.25 18C17.7844 18 18.7875 17.7375 19.5281 16.0031C19.9969 14.925 20.25 13.5 20.25 12C20.25 10.5 19.9969 9.075 19.5281 7.99688C18.7875 6.2625 17.7844 6 17.25 6Z" fill="#FEFEFE"/>
</svg>
