<svg width="32" height="32" viewBox="0 0 32 32" fill="none" xmlns="http://www.w3.org/2000/svg">
<path d="M18.5 29.3333H13.5C13.1667 29.3333 12.8778 29.2222 12.6334 29C12.3889 28.7778 12.2445 28.5 12.2 28.1667L11.8 25.0667C11.5112 24.9555 11.2392 24.8222 10.984 24.6667C10.728 24.5111 10.4778 24.3444 10.2334 24.1667L7.33338 25.3667C7.02227 25.4778 6.71115 25.4889 6.40004 25.4C6.08893 25.3111 5.84449 25.1222 5.66671 24.8333L3.20004 20.5333C3.02227 20.2444 2.96671 19.9333 3.03338 19.6C3.10004 19.2667 3.26671 19 3.53338 18.8L6.03338 16.9C6.01115 16.7444 6.00004 16.5942 6.00004 16.4493V15.5493C6.00004 15.4053 6.01115 15.2555 6.03338 15.1L3.53338 13.2C3.26671 13 3.10004 12.7333 3.03338 12.4C2.96671 12.0667 3.02227 11.7555 3.20004 11.4667L5.66671 7.16666C5.82227 6.85555 6.06093 6.66088 6.38271 6.58266C6.70538 6.50532 7.02227 6.52221 7.33338 6.63332L10.2334 7.83332C10.4778 7.65555 10.7334 7.48888 11 7.33332C11.2667 7.17777 11.5334 7.04443 11.8 6.93332L12.2 3.83332C12.2445 3.49999 12.3889 3.22221 12.6334 2.99999C12.8778 2.77777 13.1667 2.66666 13.5 2.66666H18.5C18.8334 2.66666 19.1223 2.77777 19.3667 2.99999C19.6112 3.22221 19.7556 3.49999 19.8 3.83332L20.2 6.93332C20.4889 7.04443 20.7614 7.17777 21.0174 7.33332C21.2725 7.48888 21.5223 7.65555 21.7667 7.83332L24.6667 6.63332C24.9778 6.52221 25.2889 6.5111 25.6 6.59999C25.9112 6.68888 26.1556 6.87777 26.3334 7.16666L28.8 11.4667C28.9778 11.7555 29.0334 12.0667 28.9667 12.4C28.9 12.7333 28.7334 13 28.4667 13.2L25.9667 15.1C25.9889 15.2555 26 15.4053 26 15.5493V16.4493C26 16.5942 25.9778 16.7444 25.9334 16.9L28.4334 18.8C28.7 19 28.8667 19.2667 28.9334 19.6C29 19.9333 28.9445 20.2444 28.7667 20.5333L26.3 24.8C26.1223 25.0889 25.8725 25.2835 25.5507 25.384C25.228 25.4835 24.9112 25.4778 24.6 25.3667L21.7667 24.1667C21.5223 24.3444 21.2667 24.5111 21 24.6667C20.7334 24.8222 20.4667 24.9555 20.2 25.0667L19.8 28.1667C19.7556 28.5 19.6112 28.7778 19.3667 29C19.1223 29.2222 18.8334 29.3333 18.5 29.3333V29.3333ZM16.0667 20.6667C17.3556 20.6667 18.4556 20.2111 19.3667 19.3C20.2778 18.3889 20.7334 17.2889 20.7334 16C20.7334 14.7111 20.2778 13.6111 19.3667 12.7C18.4556 11.7889 17.3556 11.3333 16.0667 11.3333C14.7556 11.3333 13.6498 11.7889 12.7494 12.7C11.8498 13.6111 11.4 14.7111 11.4 16C11.4 17.2889 11.8498 18.3889 12.7494 19.3C13.6498 20.2111 14.7556 20.6667 16.0667 20.6667ZM16.0667 18C15.5112 18 15.0392 17.8053 14.6507 17.416C14.2614 17.0275 14.0667 16.5555 14.0667 16C14.0667 15.4444 14.2614 14.9724 14.6507 14.584C15.0392 14.1947 15.5112 14 16.0667 14C16.6223 14 17.0947 14.1947 17.484 14.584C17.8725 14.9724 18.0667 15.4444 18.0667 16C18.0667 16.5555 17.8725 17.0275 17.484 17.416C17.0947 17.8053 16.6223 18 16.0667 18ZM14.6667 26.6667H17.3L17.7667 23.1333C18.4556 22.9555 19.0947 22.6942 19.684 22.3493C20.2725 22.0053 20.8112 21.5889 21.3 21.1L24.6 22.4667L25.9 20.2L23.0334 18.0333C23.1445 17.7222 23.2223 17.3942 23.2667 17.0493C23.3112 16.7053 23.3334 16.3555 23.3334 16C23.3334 15.6444 23.3112 15.2942 23.2667 14.9493C23.2223 14.6053 23.1445 14.2778 23.0334 13.9667L25.9 11.8L24.6 9.53332L21.3 10.9333C20.8112 10.4222 20.2725 9.99421 19.684 9.64932C19.0947 9.30532 18.4556 9.04443 17.7667 8.86666L17.3334 5.33332H14.7L14.2334 8.86666C13.5445 9.04443 12.9058 9.30532 12.3174 9.64932C11.728 9.99421 11.1889 10.4111 10.7 10.9L7.40004 9.53332L6.10004 11.8L8.96671 13.9333C8.8556 14.2667 8.77782 14.6 8.73338 14.9333C8.68893 15.2667 8.66671 15.6222 8.66671 16C8.66671 16.3555 8.68893 16.7 8.73338 17.0333C8.77782 17.3667 8.8556 17.7 8.96671 18.0333L6.10004 20.2L7.40004 22.4667L10.7 21.0667C11.1889 21.5778 11.728 22.0053 12.3174 22.3493C12.9058 22.6942 13.5445 22.9555 14.2334 23.1333L14.6667 26.6667Z" fill="#FEFEFE"/>
</svg>
