<svg id="eJqVrlf5Ip11" xmlns="http://www.w3.org/2000/svg" xmlns:xlink="http://www.w3.org/1999/xlink" viewBox="0 0 42 42" shape-rendering="geometricPrecision" text-rendering="geometricPrecision"><path d="M6.59375,34.7812c-1.10457,0-2-.8954-2-2v-27.20308c0-.90609-.73453-1.64062-1.64063-1.64062v0c-.90609,0-1.64062.73453-1.64062,1.64063v29.66397c0,.13.01079.2601.04355.3859.17311.6646.55267,1.2594,1.08647,1.6969.58429.4789,1.31699.7397,2.07248.7376h34.5319c.9061,0,1.6406-.7345,1.6406-1.6406v0c0-.9061-.7345-1.6407-1.6406-1.6407h-32.45315Z"/><path d="M8.2688,22.6406c0-.9061.73453-1.6406,1.64062-1.6406v0c.90608,0,1.64058.7345,1.64058,1.6406v6.9563c0,.9061-.7345,1.6406-1.64058,1.6406v0c-.90609,0-1.64062-.7345-1.64062-1.6406v-6.9563Zm8.5575-10.4868c0-.9134.7404-1.6538,1.6537-1.6538v0c.9134,0,1.6538.7404,1.6538,1.6538v17.4299c0,.9134-.7404,1.6538-1.6538,1.6538v0c-.9133,0-1.6537-.7404-1.6537-1.6538v-17.4299ZM25.41,17.3906c0-.9061.7346-1.6406,1.6407-1.6406v0c.9061,0,1.6406.7345,1.6406,1.6406v12.2063c0,.9061-.7345,1.6406-1.6406,1.6406v0c-.9061,0-1.6407-.7345-1.6407-1.6406v-12.2063Zm8.5838-9.18747c0-.9061.7345-1.64063,1.6406-1.64063v0c.9061,0,1.6406.73453,1.6406,1.64062v21.39378c0,.9061-.7345,1.6406-1.6406,1.6406v0c-.9061,0-1.6406-.7345-1.6406-1.6406v-21.39377Z" transform="translate(.110921-.091625)" fill="#020202"/><line x1="-0.9531" y1="-16.016475" x2="-0.9531" y2="11.1919" transform="matrix(.707107 0.707107-.707107 0.707107 19.968199 23.379689)" fill="none" stroke="#000" stroke-width="3" stroke-linecap="round"/><line x1="-0.9531" y1="-16.016475" x2="-0.9531" y2="11.1919" transform="matrix(-.707107 0.707107-.707107-.707107 18.620312 19.968199)" fill="none" stroke="#000" stroke-width="3" stroke-linecap="round"/></svg>
